<svg version="1.1" xmlns="http://www.w3.org/2000/svg" xmlns:xlink="http://www.w3.org/1999/xlink" viewBox="0 0 226 226"><g fill="none" fill-rule="nonzero" stroke="none" stroke-width="1" stroke-linecap="butt" stroke-linejoin="miter" stroke-miterlimit="10" stroke-dasharray="" stroke-dashoffset="0" font-family="none" font-weight="none" font-size="none" text-anchor="none" style="mix-blend-mode: normal"><path d="M0,226v-226h226v226z" fill="none"/><g id="Layer_1"><path d="M202.16406,175.52078c-0.98875,0 -1.9775,-0.26484 -2.86031,-0.8475c-2.45422,-1.58906 -3.17812,-4.85547 -1.58906,-7.32734c10.41719,-16.19078 15.92594,-34.99469 15.92594,-54.34594c0,-55.49359 -45.14703,-100.64062 -100.64062,-100.64062c-55.49359,0 -100.64062,45.14703 -100.64062,100.64063c0,19.17469 5.42047,37.83734 15.66109,53.93984c1.57141,2.47188 0.8475,5.73828 -1.62438,7.30969c-2.47188,1.57141 -5.73828,0.8475 -7.30969,-1.62437c-11.33531,-17.7975 -17.32078,-38.42 -17.32078,-59.62516c0,-61.33781 49.89656,-111.23437 111.23438,-111.23437c61.33781,0 111.23438,49.89656 111.23438,111.23438c0,21.39938 -6.09141,42.18078 -17.62094,60.08422c-1.00641,1.58906 -2.71906,2.43656 -4.44938,2.43656z" fill="#95a5a6"/><path d="M113,224.23438c-27.685,0 -54.20469,-10.22297 -74.68594,-28.815c-2.17172,-1.95984 -2.33062,-5.31453 -0.37078,-7.48625l0.51203,-0.565c0.05297,-0.07063 0.12359,-0.12359 0.17656,-0.19422c40.99781,-41.01547 107.73844,-41.01547 148.73625,0c0.15891,0.15891 0.30016,0.31781 0.42375,0.47672c0.08828,0.08828 0.17656,0.17656 0.26484,0.26484c1.95984,2.17172 1.80094,5.50875 -0.37078,7.48625c-20.48125,18.60969 -47.00094,28.83266 -74.68594,28.83266zM49.72,191.27016c17.86813,14.46047 40.13266,22.37047 63.28,22.37047c23.14734,0 45.41188,-7.91 63.28,-22.37047c-35.85984,-32.32859 -90.70016,-32.32859 -126.56,0z" fill="#666666"/><path d="M113,135.95313c-22.38812,0 -40.60937,-18.22125 -40.60937,-40.60937c0,-22.38813 18.22125,-40.60937 40.60938,-40.60937c22.38813,0 40.60938,18.22125 40.60938,40.60938c0,22.38813 -18.22125,40.60938 -40.60937,40.60938zM113,65.32813c-16.54391,0 -30.01562,13.47172 -30.01562,30.01563c0,16.54391 13.47172,30.01563 30.01563,30.01563c16.54391,0 30.01563,-13.47172 30.01563,-30.01562c0,-16.54391 -13.47172,-30.01562 -30.01562,-30.01562z" fill="#666666"/></g></g></svg>